<svg width="192" height="192" viewBox="0 0 192 192" fill="none" xmlns="http://www.w3.org/2000/svg">
<rect width="192" height="192" fill="black"/>
<path d="M45.5625 113V78.5H49.7344V109.297H65.7656V113H45.5625ZM69.8438 113V88.25H73.7812V113H69.8438ZM71.8125 83.375C71.0781 83.375 70.4531 83.1172 69.9375 82.6016C69.4219 82.0859 69.1719 81.4688 69.1875 80.75C69.1719 80.0156 69.4219 79.3984 69.9375 78.8984C70.4531 78.3828 71.0781 78.125 71.8125 78.125C72.5312 78.125 73.1406 78.3828 73.6406 78.8984C74.1562 79.3984 74.4219 80.0156 74.4375 80.75C74.4219 81.4688 74.1562 82.0859 73.6406 82.6016C73.1406 83.1172 72.5312 83.375 71.8125 83.375ZM82.9688 98.5156V113H79.0312V88.25H82.875V92.2344H82.9688C83.5156 91.0312 84.3828 90.0078 85.5703 89.1641C86.7578 88.3047 88.3281 87.875 90.2812 87.875C91.9531 87.875 93.4922 88.2344 94.8984 88.9531C96.3047 89.6562 97.4297 90.7266 98.2734 92.1641C99.1328 93.6016 99.5625 95.4219 99.5625 97.625V113H95.625V97.9062C95.625 95.7656 95.0625 94.1562 93.9375 93.0781C92.8281 91.9844 91.3438 91.4375 89.4844 91.4375C88.2812 91.4375 87.1875 91.6797 86.2031 92.1641C85.2188 92.6484 84.4297 93.4141 83.8359 94.4609C83.2578 95.4922 82.9688 96.8438 82.9688 98.5156ZM108.516 104.094L108.422 99.1719H109.266L120.562 88.25H125.484L113.438 99.9688H113.062L108.516 104.094ZM104.812 113V78.5H108.75V113H104.812ZM121.219 113L111.141 100.859L113.953 98.0938L126.281 113H121.219ZM147 95.75H143.109C143.094 94.4375 142.609 93.3906 141.656 92.6094C140.719 91.8281 139.453 91.4375 137.859 91.4375C136.344 91.4375 135.109 91.7656 134.156 92.4219C133.219 93.0781 132.75 93.9375 132.75 95C132.75 95.9375 133.109 96.6797 133.828 97.2266C134.547 97.7734 135.5 98.1875 136.688 98.4688L140.672 99.4062C143.047 99.9688 144.781 100.812 145.875 101.938C146.969 103.062 147.516 104.469 147.516 106.156C147.516 107.688 147.102 108.992 146.273 110.07C145.461 111.148 144.344 111.969 142.922 112.531C141.5 113.094 139.891 113.375 138.094 113.375C136.328 113.375 134.727 113.094 133.289 112.531C131.852 111.969 130.688 111.109 129.797 109.953C128.906 108.781 128.406 107.297 128.297 105.5H132.234C132.375 106.969 132.938 108.055 133.922 108.758C134.906 109.461 136.266 109.812 138 109.812C139.719 109.812 141.07 109.492 142.055 108.852C143.039 108.211 143.531 107.344 143.531 106.25C143.531 105.312 143.188 104.594 142.5 104.094C141.828 103.594 140.938 103.219 139.828 102.969L135.844 102.031C133.547 101.484 131.805 100.625 130.617 99.4531C129.445 98.2812 128.859 96.7969 128.859 95C128.859 93.5938 129.242 92.3594 130.008 91.2969C130.773 90.2188 131.828 89.3828 133.172 88.7891C134.531 88.1797 136.094 87.875 137.859 87.875C140.438 87.875 142.586 88.5703 144.305 89.9609C146.039 91.3516 146.938 93.2812 147 95.75Z" fill="white"/>
</svg>
